Coordinates
version=1
nRows=12
nColumns=24
inDegrees=yes

Units are S.I. units (second, meters, Newtons, ...)
Angles are in degrees.

endheader
time	pelvis_tilt	pelvis_list	pelvis_rotation	pelvis_tx	pelvis_ty	pelvis_tz	hip_flexion_r	hip_adduction_r	hip_rotation_r	knee_angle_r	ankle_angle_r	subtalar_angle_r	mtp_angle_r	hip_flexion_l	hip_adduction_l	hip_rotation_l	knee_angle_l	ankle_angle_l	subtalar_angle_l	mtp_angle_l	lumbar_extension	lumbar_bending	lumbar_rotation
      1.10383333	     -0.37416463	      2.82410440	     -6.13370108	     -0.07807040	      0.99712931	      0.26261945	    -13.76114524	     -1.44600351	      2.03252837	     -9.50413807	     14.52219693	     -6.20075721	      5.47936802	     21.59222183	      1.91879693	     -8.53686867	      3.62385958	      0.88378649	     -7.40274044	      7.36528768	     -1.78698231	     -2.26875744	     13.03841960
      1.10800000	     -0.35962046	      2.91624503	     -6.19336646	     -0.07223864	      0.99660286	      0.26229688	    -13.87526643	     -1.62209561	      1.98676809	    -10.00153610	     14.60255446	     -6.03455050	      5.50867580	     21.60795353	      2.05001815	     -8.44819786	      3.33224507	      0.93578431	     -7.70465507	      7.39829026	     -1.75268856	     -2.39864350	     13.15717933
      1.11216667	     -0.33559075	      3.02179838	     -6.25561186	     -0.06638315	      0.99611459	      0.26196205	    -13.97839253	     -1.81773650	      1.91108621	    -10.53968760	     14.67182778	     -5.83035051	      5.55476214	     21.61581972	      2.19736488	     -8.33573389	      2.98035559	      0.92855404	     -8.06269105	      7.44102677	     -1.72547994	     -2.54367238	     13.28593011
      1.11633333	     -0.31723257	      3.13748205	     -6.31589857	     -0.06048377	      0.99565291	      0.26159828	    -14.05678851	     -2.02691678	      1.81685786	    -11.11494073	     14.72289434	     -5.60542462	      5.63229196	     21.62781935	      2.35882718	     -8.20574753	      2.58161907	      0.85038641	     -8.47905708	      7.50402420	     -1.68223067	     -2.68001122	     13.42168149
      1.12050000	     -0.29614140	      3.27523318	     -6.38061443	     -0.05453962	      0.99523185	      0.26126540	    -14.13883495	     -2.25490361	      1.79007175	    -11.68658023	     14.74036935	     -5.47981492	      5.70571603	     21.64053277	      2.53912307	     -8.06534241	      2.12148634	      0.80290862	     -8.83718887	      7.55859912	     -1.64089352	     -2.87363437	     13.52308032
      1.12466667	     -0.26644699	      3.41253405	     -6.44540256	     -0.04857658	      0.99484749	      0.26088561	    -14.19560540	     -2.49265195	      1.68484864	    -12.32533422	     14.75100519	     -5.24455370	      5.83132188	     21.63873617	      2.72714706	     -7.89780039	      1.64049765	      0.62497493	     -9.31545368	      7.64274055	     -1.59887348	     -3.04053453	     13.66416156
      1.12883333	     -0.23802008	      3.56620460	     -6.51051480	     -0.04257334	      0.99449623	      0.26051303	    -14.24336596	     -2.74441307	      1.61669830	    -12.97726164	     14.72636370	     -5.07460932	      5.98337502	     21.63777986	      2.93177913	     -7.71751939	      1.12367581	      0.43846952	     -9.77282532	      7.73839709	     -1.55290205	     -3.24117370	     13.77712842
      1.13300000	     -0.21910067	      3.72935321	     -6.57826955	     -0.03653468	      0.99416753	      0.26013828	    -14.26073257	     -3.00658238	      1.54985689	    -13.66647523	     14.67203449	     -4.90812497	      6.16059282	     21.64532854	      3.14501077	     -7.53379475	      0.58185151	      0.20166008	    -10.23196168	      7.84050475	     -1.49087469	     -3.44989692	     13.89523017
      1.13716667	     -0.18800221	      3.90185889	     -6.64495447	     -0.03047012	      0.99388353	      0.25974109	    -14.27141306	     -3.28220997	      1.47432493	    -14.39177198	     14.58905678	     -4.74082773	      6.37164556	     21.63580100	      3.37315242	     -7.34035733	      0.02802792	     -0.08185580	    -10.70415477	      7.95264993	     -1.43787326	     -3.66867922	     14.00919129
      1.14133333	     -0.08734162	      4.08092215	     -6.71336638	     -0.02436179	      0.99374582	      0.25935213	    -14.36375735	     -3.56716111	      1.44093620	    -15.09452659	     14.36979242	     -4.72824779	      7.74294938	     21.50527038	      3.62765420	     -7.02998646	     -0.44454138	     -0.48241714	    -11.38396950	      8.64367726	     -1.47095283	     -3.91066683	     14.04686179
      1.14550000	     -0.11900829	      4.26471304	     -6.76925821	     -0.01825517	      0.99343097	      0.25890806	    -14.24907957	     -3.85103014	      1.33109722	    -15.93029181	     14.27288844	     -4.50008055	      7.90406744	     21.60542794	      3.85360608	     -6.95609100	     -1.11862394	     -0.75529003	    -11.61140906	      8.71478075	     -1.32997255	     -4.13041854	     14.18904633
      1.14966667	     -0.08597816	      4.46112649	     -6.83605495	     -0.01212021	      0.99324704	      0.25846652	    -14.18689736	     -4.15811703	      1.23596616	    -16.79124124	     14.09949772	     -4.31897148	      8.12587321	     21.58430875	      4.11001123	     -6.77796052	     -1.68946959	     -1.15285101	    -12.05200119	      8.80178076	     -1.26759834	     -4.37551049	     14.30153383
